<svg width="200" height="200" viewBox="0 0 200 200" fill="none" xmlns="http://www.w3.org/2000/svg">
<circle cx="100" cy="100" r="100" fill="#00E53D"/>
<path fill-rule="evenodd" clip-rule="evenodd" d="M99.7856 93.1627C94.2754 93.1627 89.7922 97.6459 89.7922 103.156C89.7922 108.666 94.2754 113.149 99.7856 113.149C105.296 113.149 109.779 108.666 109.779 103.156C109.779 97.6459 105.296 93.1627 99.7856 93.1627V93.1627ZM116.697 76.2509C116.697 70.7315 112.223 66.2576 106.704 66.2576H92.8671C87.3477 66.2576 82.8737 70.7315 82.8737 76.2509H71.343C65.8236 76.2509 61.3496 80.7249 61.3496 86.2443V120.068C61.3496 125.587 65.8236 130.061 71.343 130.061H128.228C133.748 130.061 138.222 125.587 138.222 120.068V86.2443C138.222 80.7249 133.748 76.2509 128.228 76.2509H116.697ZM99.7856 120.837C90.0359 120.837 82.105 112.905 82.105 103.156C82.105 93.4072 90.0359 85.4755 99.7856 85.4755C109.535 85.4755 117.466 93.4072 117.466 103.156C117.466 112.905 109.535 120.837 99.7856 120.837V120.837Z" fill="white"/>
</svg>
