<svg width="47" height="48" viewBox="0 0 47 48" fill="none" xmlns="http://www.w3.org/2000/svg">
<path fill-rule="evenodd" clip-rule="evenodd" d="M28.7862 3.95365C29.878 3.95365 30.763 3.06859 30.763 1.97682C30.763 0.885054 29.878 0 28.7862 0C27.6945 0 26.8094 0.885054 26.8094 1.97682C26.8094 3.06859 27.6945 3.95365 28.7862 3.95365ZM33.6155 25.633C34.7073 25.633 35.5923 24.748 35.5923 23.6562C35.5923 22.5644 34.7073 21.6794 33.6155 21.6794C32.5237 21.6794 31.6387 22.5644 31.6387 23.6562C31.6387 24.748 32.5237 25.633 33.6155 25.633ZM34.2451 2.72883C34.0993 2.6773 34.0736 2.6687 34.042 2.66046C33.8674 2.62274 33.8632 2.62186 33.8324 2.61844C33.687 2.6047 33.6426 2.6016 33.5954 2.6016C33.4259 2.60992 33.3968 2.61191 33.3603 2.61767C33.1068 2.64965 32.8538 2.7451 32.6322 2.89303C32.4614 3.02026 32.3732 3.09903 32.2897 3.19565C32.093 3.43498 31.9721 3.67089 31.9109 3.93338C31.8854 4.06845 31.8807 4.09543 31.8775 4.1204L31.8754 4.15069C31.8657 4.29053 31.8646 4.30613 31.8645 4.32173L31.8645 4.33163L31.874 18.514C31.8746 19.4689 32.6485 20.2424 33.6031 20.2424C34.5594 20.2412 35.3333 19.4667 35.3327 18.5116L35.3241 7.47705C40.8388 11.1128 43.538 16.8806 43.538 23.6221C43.538 34.6717 34.5478 43.6622 23.4984 43.6622C12.4489 43.6622 3.45871 34.6717 3.45871 23.6221C3.45871 12.5726 12.4488 3.58244 23.4984 3.58244C24.4534 3.58244 25.2275 2.80794 25.2275 1.85286C25.2275 0.898144 24.4533 0.123735 23.4984 0.123735C20.3282 0.123735 17.2499 0.745562 14.3514 1.97133C11.553 3.15492 9.0399 4.84929 6.88292 7.00672C4.72555 9.16363 3.03118 11.6767 1.84761 14.4751C0.621827 17.3736 0 20.4519 0 23.6221C0 26.7923 0.621827 29.8705 1.8476 32.7691C3.03112 35.5673 4.72542 38.0804 6.88295 40.2379C9.03991 42.3949 11.5529 44.0893 14.3513 45.2733C17.2489 46.4987 20.3271 47.12 23.4984 47.12C26.6699 47.12 29.7477 46.4987 32.6453 45.2733C35.4438 44.0892 37.9568 42.3949 40.1138 40.2379C42.2713 38.0804 43.9656 35.5673 45.1491 32.7691C46.3747 29.871 46.9963 26.7928 46.9963 23.6221C46.9963 19.2538 45.7886 14.9893 43.5038 11.29C41.2878 7.70188 38.1459 4.76996 34.416 2.80945C34.2998 2.75264 34.2756 2.74121 34.2451 2.72883ZM17.5765 13.2087C18.7946 12.1136 20.6378 11.5749 23.0951 11.5749C25.5833 11.5749 27.4419 12.1192 28.6594 13.2267C29.8485 14.3076 30.4595 15.7517 30.4896 17.5375C30.4898 17.5581 30.49 17.6943 30.4902 17.9185C30.4904 18.1168 30.4904 18.1772 30.49 18.2375C30.4899 18.2639 30.4896 18.2902 30.4893 18.3282C30.4696 18.5609 30.3829 18.8847 30.1751 19.2124C29.8244 19.7654 29.2421 20.1013 28.4207 20.1013C27.594 20.1013 27.025 19.7596 26.7069 19.1974C26.519 18.8654 26.454 18.5392 26.4502 18.2988V17.5428C26.4502 16.5791 26.1955 15.8578 25.6943 15.3585C25.1975 14.8634 24.3662 14.6055 23.1854 14.6055C22.0046 14.6055 21.1732 14.8634 20.676 15.3586C20.1746 15.858 19.9207 16.5682 19.9207 17.5103C19.9207 18.2851 20.1559 18.9507 20.6307 19.5226C21.1355 20.1317 21.7663 20.696 22.5243 21.2156C23.2981 21.7465 24.1404 22.267 25.05 22.7764C25.9841 23.3004 26.8497 23.8748 27.646 24.4991C28.4573 25.1349 29.1374 25.8568 29.6849 26.6643C30.2528 27.5026 30.5357 28.4961 30.5357 29.6372C30.5357 31.4859 29.9167 32.9773 28.6808 34.0871C27.4484 35.1933 25.5676 35.7371 23.0499 35.7371C20.5317 35.7371 18.6579 35.193 17.4399 34.0856C16.2199 32.9758 15.6093 31.4851 15.6093 29.6372L15.6093 28.3251C15.6062 28.0738 15.6641 27.7426 15.8445 27.4089C16.1581 26.829 16.7442 26.4782 17.6119 26.4782C18.4803 26.4782 19.0652 26.8296 19.3754 27.4105C19.5524 27.7419 19.6086 28.0717 19.6045 28.3227V29.7691C19.6045 30.7305 19.8713 31.449 20.3985 31.9474C20.9275 32.4474 21.7765 32.7065 22.9596 32.7065C24.1424 32.7065 24.9913 32.4474 25.5203 31.9474C26.0477 31.4488 26.3147 30.7302 26.3147 29.7691C26.3147 28.9953 26.0797 28.3357 25.6062 27.7759C25.0999 27.1758 24.4683 26.6159 23.7103 26.0964C22.9367 25.5663 22.1013 25.0452 21.2059 24.5344C20.2891 24.0121 19.4316 23.4383 18.6336 22.8133C17.8221 22.1774 17.1421 21.4552 16.5952 20.6473C16.0274 19.8102 15.7448 18.8167 15.7448 17.6747C15.7448 15.8048 16.3556 14.3072 17.5765 13.2087Z" fill="white"/>
</svg>
